<svg xmlns="http://www.w3.org/2000/svg" xmlns:xlink="http://www.w3.org/1999/xlink" id="Grupo_3759" data-name="Grupo 3759" width="246.192" height="70.793" viewBox="0 0 246.192 70.793"><defs><clipPath id="clip-path"><rect id="Rect&#xE1;ngulo_18" data-name="Rect&#xE1;ngulo 18" width="246.192" height="70.793" fill="none"></rect></clipPath></defs><g id="Grupo_3" data-name="Grupo 3" clip-path="url(#clip-path)"><path id="Trazado_5" data-name="Trazado 5" d="M465.319,56.584a11.032,11.032,0,0,0-4.333-3.681L441.006,42.878c-1.873-.9-3.034-1.043-3.878-.508s-1.224,1.677-1.224,3.7v1.289a7.583,7.583,0,0,0,.893,4.051,7.556,7.556,0,0,0,3.268,2.577l15.907,7.738c.068.031.125.06.174.088-.055.031-.12.063-.2.1l-15.879,7.724a7.574,7.574,0,0,0-3.271,2.579,7.586,7.586,0,0,0-.894,4.052v1.288c0,2.027.377,3.17,1.223,3.7a2.083,2.083,0,0,0,1.147.314,6.73,6.73,0,0,0,2.757-.831l19.985-10.029a10.944,10.944,0,0,0,4.3-3.666,9.719,9.719,0,0,0,1.323-5.234,9.718,9.718,0,0,0-1.323-5.234" transform="translate(-220.45 -21.27)" fill="#6b5cff"></path><path id="Trazado_6" data-name="Trazado 6" d="M106.123,1.075C105.586.361,104.226,0,102.082,0h-1.735a7.949,7.949,0,0,0-4.625,1.048,8.463,8.463,0,0,0-2.45,4.157L74.333,65.5c-.693,2.08-.773,3.5-.234,4.214s1.9,1.076,4.04,1.076h1.429a7.949,7.949,0,0,0,4.625-1.048,8.417,8.417,0,0,0,2.451-4.056l19.244-60.5c.692-2.014.773-3.4.236-4.116" transform="translate(-37.296)" fill="#6b5cff"></path><path id="Trazado_7" data-name="Trazado 7" d="M29.516,42.375c-.858-.543-2.024-.388-3.9.518L5.628,52.922a10.937,10.937,0,0,0-4.3,3.666A9.717,9.717,0,0,0,0,61.822a9.723,9.723,0,0,0,1.323,5.234,11.029,11.029,0,0,0,4.333,3.68L25.637,80.763a6.6,6.6,0,0,0,2.728.816,2.111,2.111,0,0,0,1.15-.309c.847-.533,1.224-1.677,1.224-3.7V76.276a7.575,7.575,0,0,0-.893-4.05,7.546,7.546,0,0,0-3.268-2.577L10.671,61.911c-.068-.032-.125-.061-.174-.088.055-.03.12-.064.2-.1L26.574,54a7.579,7.579,0,0,0,3.271-2.578,7.587,7.587,0,0,0,.894-4.053V46.079c0-2.027-.377-3.17-1.223-3.7" transform="translate(0 -21.272)" fill="#6b5cff"></path><path id="Trazado_8" data-name="Trazado 8" d="M222.632,35.515H220.8c-2.216,0-3.688.349-4.376,1.036s-1.037,2.161-1.037,4.376V80.322c0,2.217.349,3.689,1.036,4.375s2.159,1.038,4.377,1.038h1.827c2.215,0,3.688-.349,4.376-1.037s1.037-2.16,1.037-4.375V40.928c0-2.214-.349-3.686-1.037-4.376s-2.162-1.036-4.376-1.036" transform="translate(-108.93 -17.961)" fill="#fff"></path><path id="Trazado_9" data-name="Trazado 9" d="M397.125,35.515H395.3c-2.215,0-3.688.349-4.376,1.036s-1.036,2.161-1.036,4.376V80.322c0,2.217.348,3.689,1.036,4.375s2.159,1.038,4.376,1.038h1.828c2.215,0,3.688-.349,4.376-1.037s1.037-2.16,1.037-4.375V40.928c0-2.214-.349-3.686-1.037-4.376s-2.162-1.036-4.376-1.036" transform="translate(-197.176 -17.961)" fill="#fff"></path><path id="Trazado_10" data-name="Trazado 10" d="M148.672,47.043c8.9-2.275,13.349-8.8,13.349-19.48,0-13.745-7.318-20.568-21.854-20.568A1.749,1.749,0,0,0,138.5,8.209l-2.748,8.558a1.983,1.983,0,0,0,1.888,2.589h2.525c6.032,0,8.6,2.571,8.6,8.207,0,5.438-2.867,8.108-8.6,8.108h-8.378a2.884,2.884,0,0,0-2.746,2l-2.436,7.588a2.121,2.121,0,0,0,2.02,2.77h5.707L146.4,66.424c2.67,3.856,4.449,4.845,8.9,4.845h3.757c4.648,0,5.043-1.088,2.571-4.746Z" transform="translate(-63.977 -3.538)" fill="#fff"></path><path id="Trazado_11" data-name="Trazado 11" d="M310.465,35.579H308.9a4.882,4.882,0,0,0-3.876,1.338c-.72.847-1.179,2.354-1.442,4.744l-2.7,28.532a8.3,8.3,0,0,1-.632,2.9.887.887,0,0,1-.815.357.922.922,0,0,1-.876-.388,7.838,7.838,0,0,1-.568-2.84l-2.278-24.49c-.353-3.7-1.216-6.249-2.637-7.795s-3.667-2.34-6.653-2.354v0h-.109v0c-2.986.014-5.226.805-6.653,2.354s-2.284,4.1-2.637,7.795l-2.278,24.49a7.838,7.838,0,0,1-.568,2.84.921.921,0,0,1-.876.388.887.887,0,0,1-.815-.357,8.3,8.3,0,0,1-.632-2.9l-2.7-28.532c-.263-2.39-.722-3.9-1.441-4.744a4.883,4.883,0,0,0-3.876-1.338h-1.565c-1.934,0-3.175.466-3.8,1.424-.573.886-.715,2.39-.45,4.733l3.13,30.072c.494,4.616,1.541,8.032,3.194,10.438,1.739,2.39,4.752,3.6,8.953,3.6,3.494,0,6.093-1.138,7.723-3.383,1.576-2.169,2.558-5.659,3-10.67l1.848-20.072h.985L288.709,71.8c.445,5.011,1.427,8.5,3,10.67,1.63,2.244,4.228,3.383,7.723,3.383,4.2,0,7.214-1.212,8.953-3.6,1.654-2.406,2.7-5.822,3.194-10.438l3.13-30.072c.266-2.343.123-3.847-.45-4.733-.622-.958-1.864-1.424-3.8-1.424" transform="translate(-130.426 -17.993)" fill="#fff"></path><path id="Trazado_12" data-name="Trazado 12" d="M400.581,0h-1.735a7.953,7.953,0,0,0-4.625,1.048,8.467,8.467,0,0,0-2.45,4.157l-.622,1.981a2.266,2.266,0,0,0,2.162,2.945h7.846a2.266,2.266,0,0,0,2.159-1.58l1.069-3.361c.693-2.014.773-3.4.236-4.116S402.725,0,400.581,0" transform="translate(-197.763)" fill="#fff"></path></g></svg>